{
  "accessors": [
    {
      "bufferView": 2,
      "componentType": 5126,
      "count": 473,
      "max": [
        0.037625256925821304,
        0.037625256925821304,
        0.1256033480167389
      ],
      "min": [
        -0.037625256925821304,
        -0.037625256925821304,
        0.0
      ],
      "type": "VEC3"
    },
    {
      "bufferView": 2,
      "byteOffset": 5676,
      "componentType": 5126,
      "count": 473,
      "max": [
        1.0,
        1.0,
        1.0
      ],
      "min": [
        -1.0,
        -1.0,
        -1.0
      ],
      "type": "VEC3"
    },
    {
      "bufferView": 3,
      "componentType": 5126,
      "count": 473,
      "max": [
        0.7067446708679199,
        0.9992547631263733,
        0.9980511665344238,
        1.0
      ],
      "min": [
        -0.7824198603630066,
        -0.9953926801681519,
        -0.9999232292175293,
        1.0
      ],
      "type": "VEC4"
    },
    {
      "bufferView": 1,
      "componentType": 5126,
      "count": 473,
      "max": [
        0.9833067655563354,
        0.9997646808624268
      ],
      "min": [
        0.000235391067690216,
        0.000235391067690216
      ],
      "type": "VEC2"
    },
    {
      "bufferView": 0,
      "componentType": 5125,
      "count": 2058,
      "type": "SCALAR"
    }
  ],
  "asset": {
    "extras": {
      "author": "AleixoAlonso (https://sketchfab.com/AleixoAlonso)",
      "license": "CC-BY-4.0 (http://creativecommons.org/licenses/by/4.0/)",
      "source": "https://sketchfab.com/3d-models/low-poly-light-bulb-a7d27c2224d94c86a04083de8f9df7db",
      "title": "Low Poly Light Bulb"
    },
    "generator": "Sketchfab-12.66.0",
    "version": "2.0"
  },
  "bufferViews": [
    {
      "buffer": 0,
      "byteLength": 8232,
      "name": "floatBufferViews",
      "target": 34963
    },
    {
      "buffer": 0,
      "byteLength": 3784,
      "byteOffset": 8232,
      "byteStride": 8,
      "name": "floatBufferViews",
      "target": 34962
    },
    {
      "buffer": 0,
      "byteLength": 11352,
      "byteOffset": 12016,
      "byteStride": 12,
      "name": "floatBufferViews",
      "target": 34962
    },
    {
      "buffer": 0,
      "byteLength": 7568,
      "byteOffset": 23368,
      "byteStride": 16,
      "name": "floatBufferViews",
      "target": 34962
    }
  ],
  "buffers": [
    {
      "byteLength": 30936,
      "uri": "scene.bin"
    }
  ],
  "images": [
    {
      "uri": "textures/LMP0003_Textures_baseColor.png"
    },
    {
      "uri": "textures/LMP0003_Textures_metallicRoughness.png"
    },
    {
      "uri": "textures/LMP0003_Textures_emissive.png"
    },
    {
      "uri": "textures/LMP0003_Textures_normal.png"
    }
  ],
  "materials": [
    {
      "doubleSided": true,
      "emissiveFactor": [
        1.0,
        1.0,
        1.0
      ],
      "emissiveTexture": {
        "index": 2
      },
      "name": "LMP0003_Textures",
      "normalTexture": {
        "index": 3
      },
      "pbrMetallicRoughness": {
        "baseColorTexture": {
          "index": 0
        },
        "metallicRoughnessTexture": {
          "index": 1
        }
      }
    }
  ],
  "meshes": [
    {
      "name": "#LMP0003_Light_Bulb_Low_Poly_#LMP0003_Textures_0",
      "primitives": [
        {
          "attributes": {
            "NORMAL": 1,
            "POSITION": 0,
            "TANGENT": 2,
            "TEXCOORD_0": 3
          },
          "indices": 4,
          "material": 0,
          "mode": 4
        }
      ]
    }
  ],
  "nodes": [
    {
      "children": [
        1
      ],
      "matrix": [
        1.0,
        0.0,
        0.0,
        0.0,
        0.0,
        2.220446049250313e-16,
        -1.0,
        0.0,
        0.0,
        1.0,
        2.220446049250313e-16,
        0.0,
        0.0,
        0.0,
        0.0,
        1.0
      ],
      "name": "Sketchfab_model"
    },
    {
      "children": [
        2
      ],
      "matrix": [
        1.0,
        0.0,
        0.0,
        0.0,
        0.0,
        0.0,
        1.0,
        0.0,
        0.0,
        -1.0,
        0.0,
        0.0,
        0.0,
        0.0,
        0.0,
        1.0
      ],
      "name": "Low_Poly_Light_Bulb.fbx"
    },
    {
      "children": [
        3
      ],
      "name": "RootNode"
    },
    {
      "children": [
        4
      ],
      "matrix": [
        1.0,
        0.0,
        0.0,
        0.0,
        -0.0,
        -1.6292067939183141e-07,
        -0.9999999999999868,
        0.0,
        0.0,
        0.9999999999999868,
        -1.6292067939183141e-07,
        0.0,
        -4.246722695722127e-10,
        8.77678394317627e-06,
        1.3096723705530167e-10,
        1.0
      ],
      "name": "#LMP0003_Light_Bulb_Low_Poly"
    },
    {
      "mesh": 0,
      "name": "#LMP0003_Light_Bulb_Low_Poly_#LMP0003_Textures_0"
    }
  ],
  "samplers": [
    {
      "magFilter": 9729,
      "minFilter": 9987,
      "wrapS": 10497,
      "wrapT": 10497
    }
  ],
  "scene": 0,
  "scenes": [
    {
      "name": "Sketchfab_Scene",
      "nodes": [
        0
      ]
    }
  ],
  "textures": [
    {
      "sampler": 0,
      "source": 0
    },
    {
      "sampler": 0,
      "source": 1
    },
    {
      "sampler": 0,
      "source": 2
    },
    {
      "sampler": 0,
      "source": 3
    }
  ]
}
